<svg width="14" height="3" viewBox="0 0 14 3" fill="none" xmlns="http://www.w3.org/2000/svg">
<path d="M5.78739 2.41711H0.0900879V2.46306H5.78739V2.41711Z" fill="#FFFFFA"/>
<path d="M13.8887 2.41711H8.19141V2.46306H13.8887V2.41711Z" fill="#FFFFFA"/>
<path d="M6.41647 2.90718V2.5025H6.63302C6.70502 2.5025 6.7641 2.4764 6.81028 2.42416C6.85647 2.37196 6.87954 2.3023 6.87954 2.21504C6.87954 2.12838 6.85647 2.05919 6.81028 2.00768C6.7641 1.95608 6.70502 1.9303 6.63302 1.9303H6.3667V2.90718H6.41647ZM6.41647 1.98622H6.63077C6.69068 1.98622 6.73847 2.00625 6.77409 2.04646C6.80971 2.08666 6.82752 2.14281 6.82752 2.21504C6.82752 2.28732 6.80971 2.34393 6.77409 2.38506C6.73847 2.42614 6.69068 2.44672 6.63077 2.44672H6.41647V1.98622ZM7.2369 2.90718V2.47461H7.46988L7.6621 2.90718H7.72091L7.53937 2.50117C7.53258 2.48527 7.52636 2.47369 7.52076 2.46643V2.46377C7.56896 2.45099 7.60813 2.42012 7.63803 2.37104C7.66801 2.32206 7.683 2.26297 7.683 2.194C7.683 2.1395 7.67289 2.09204 7.65279 2.05156C7.63258 2.01117 7.60516 1.98047 7.57049 1.95966C7.53842 1.94009 7.48979 1.9303 7.42461 1.9303H7.18716V2.90718H7.2369ZM7.2369 1.98622H7.42236C7.47324 1.98622 7.51115 1.99279 7.53598 2.00598C7.56538 2.02183 7.58857 2.04637 7.60554 2.07945C7.62255 2.11267 7.63098 2.15081 7.63098 2.194C7.63098 2.26076 7.61515 2.31485 7.5835 2.35643C7.5518 2.39797 7.50962 2.41878 7.45684 2.41878H7.2369V1.98622Z" fill="white"/>
<path d="M0.159214 1.20788V0.761257H0.656726V1.20788H0.704856V0.263306H0.656726V0.707267H0.159214V0.263306H0.111084V1.20788H0.159214Z" fill="white"/>
<path d="M1.17665 1.20788L1.27726 0.881138H1.61021L1.71192 1.20788H1.76329L1.47024 0.263306H1.4183L1.12524 1.20788H1.17665ZM1.41395 0.444437C1.4223 0.417649 1.43199 0.379879 1.4429 0.331127H1.44564L1.45003 0.350242C1.45293 0.363429 1.45685 0.379465 1.46177 0.398304C1.46669 0.417189 1.47097 0.432582 1.47463 0.444437L1.59327 0.827148H1.2942L1.41395 0.444437Z" fill="white"/>
<path d="M2.21 1.20788L2.25809 0.487262C2.26026 0.456522 2.26137 0.413927 2.26137 0.359477H2.26408L2.27064 0.381855C2.27502 0.396329 2.28055 0.414249 2.2873 0.435523C2.29405 0.456844 2.29996 0.474075 2.30507 0.487262L2.51434 1.02606H2.5635L2.77387 0.487262C2.78588 0.456522 2.79934 0.4148 2.81429 0.362096H2.81647V0.383187C2.81647 0.397248 2.81673 0.414708 2.81727 0.435569C2.81784 0.45643 2.81864 0.473661 2.81975 0.487308L2.86883 1.20788H2.91692L2.85403 0.263306H2.80701L2.57849 0.857429C2.56647 0.888169 2.5537 0.923549 2.54023 0.963479H2.53802L2.5003 0.857429L2.27178 0.263306H2.22475L2.16187 1.20788H2.21Z" fill="white"/>
<path d="M3.41549 0.263306H3.46362V1.20788H3.41549V0.263306Z" fill="white"/>
<path d="M4.40718 1.20788V1.15385H4.0332V0.263306H3.98511V1.20788H4.40718Z" fill="white"/>
<path d="M4.93607 0.317342V1.20793H4.9842V0.317342H5.27669V0.263306H4.64355V0.317342H4.93607Z" fill="white"/>
<path d="M5.63885 0.923501C5.65979 0.984981 5.68805 1.03768 5.72359 1.08161C5.75914 1.12549 5.80132 1.16032 5.85017 1.18601C5.89899 1.21169 5.95021 1.22451 6.00379 1.22451C6.05738 1.22451 6.10859 1.21169 6.15741 1.18601C6.20627 1.16032 6.24845 1.12549 6.28399 1.08161C6.31954 1.03768 6.34776 0.984981 6.36873 0.923501C6.38971 0.862021 6.40016 0.797233 6.40016 0.729182C6.40016 0.662418 6.38971 0.599192 6.36873 0.539458C6.34776 0.47977 6.31954 0.42872 6.28399 0.386309C6.24845 0.343944 6.20627 0.310218 6.15741 0.285221C6.10859 0.260179 6.05738 0.247681 6.00379 0.247681C5.95021 0.247681 5.89899 0.260179 5.85017 0.285221C5.80132 0.310218 5.75914 0.343944 5.72359 0.386309C5.68805 0.42872 5.65979 0.47977 5.63885 0.539458C5.61787 0.599192 5.60742 0.662418 5.60742 0.729182C5.60742 0.797233 5.61787 0.862021 5.63885 0.923501ZM5.70418 0.512486C5.73515 0.447054 5.77706 0.395775 5.82992 0.358648C5.88278 0.321567 5.94075 0.303003 6.00379 0.303003C6.06683 0.303003 6.1248 0.321567 6.17766 0.358648C6.23048 0.395775 6.27244 0.447054 6.3034 0.512486C6.33437 0.577917 6.34989 0.65015 6.34989 0.729182C6.34989 0.81042 6.33437 0.884858 6.3034 0.952495C6.27244 1.02013 6.23048 1.07316 6.17766 1.11157C6.1248 1.14998 6.06683 1.16919 6.00379 1.16919C5.94075 1.16919 5.88278 1.14998 5.82992 1.11157C5.77706 1.07316 5.73515 1.02013 5.70418 0.952495C5.67321 0.884858 5.65773 0.81042 5.65773 0.729182C5.65773 0.65015 5.67321 0.577917 5.70418 0.512486Z" fill="white"/>
<path d="M6.91459 1.20788V0.467504C6.91459 0.435891 6.91275 0.396145 6.90913 0.348266H6.91131L6.92168 0.368667C6.92862 0.381855 6.93735 0.398442 6.94792 0.41843C6.95852 0.438418 6.96764 0.454776 6.97526 0.467504L7.42197 1.20788H7.46679V0.263306H7.41869V1.00433C7.41869 1.03594 7.42049 1.0755 7.42415 1.12292H7.42197L7.41156 1.10248C7.40462 1.08933 7.39589 1.07284 7.38532 1.05308C7.37476 1.03332 7.36564 1.0171 7.35794 1.00433L6.91131 0.263306H6.86646V1.20788H6.91459Z" fill="white"/>
<path d="M9.03246 1.22383H8.94901L8.7706 0.45754C8.76973 0.453818 8.76889 0.450142 8.76809 0.446604C8.7621 0.473622 8.75623 0.497653 8.75031 0.519157L8.59135 1.22383H8.50661L8.29834 0.269653H8.38068L8.54875 1.06218L8.72755 0.269653H8.80779L8.99131 1.05773C8.99322 1.04817 8.99512 1.03884 8.99699 1.02974L9.16385 0.269653H9.24619L9.03246 1.22383Z" fill="white"/>
<path d="M9.73813 0.816874H9.9808L9.87413 0.472439C9.87058 0.460676 9.86627 0.445466 9.86143 0.426811C9.86097 0.424927 9.86047 0.423089 9.85998 0.421297C9.85494 0.441377 9.85018 0.458516 9.84575 0.472531L9.73813 0.816874ZM10.1921 1.22476H10.1077L10.0093 0.908267H9.7096L9.61219 1.22476H9.52783L9.82359 0.27063H9.89632L10.1921 1.22476Z" fill="white"/>
<path d="M11.0376 1.22383H10.5967V0.269653H10.6757V1.13249H11.0376V1.22383Z" fill="white"/>
<path d="M12.8871 1.22383H12.4192V0.269653H12.867V0.361H12.4982V0.697256H12.8009V0.788603H12.4982V1.13249H12.8871V1.22383Z" fill="white"/>
<path d="M13.4039 0.727215H13.5935C13.6385 0.727215 13.6734 0.710168 13.7 0.675155C13.7271 0.639682 13.7402 0.594192 13.7402 0.536159C13.7402 0.499583 13.733 0.466913 13.7188 0.439114C13.7046 0.411223 13.6856 0.391189 13.6609 0.377818C13.6399 0.366652 13.6063 0.361 13.5612 0.361H13.4039V0.727215ZM13.8677 1.22383H13.7758L13.5959 0.818608H13.4039V1.22383H13.325V0.269653H13.5634C13.6275 0.269653 13.6746 0.279303 13.7072 0.299199C13.7421 0.320289 13.7703 0.351764 13.7907 0.392705C13.811 0.433462 13.8213 0.481709 13.8213 0.536159C13.8213 0.604807 13.8061 0.664541 13.776 0.71366C13.7505 0.755704 13.7177 0.784882 13.6786 0.800642C13.6807 0.805007 13.6829 0.809786 13.6851 0.815024L13.8677 1.22383Z" fill="white"/>
<path d="M11.8965 1.22456L11.532 0.791076V1.22038H11.4546V0.247681H11.532V0.673078L11.8465 0.27038L11.9526 0.270288L11.5944 0.732858L12.002 1.22447L11.8965 1.22456Z" fill="white"/>
</svg>
